<svg width="399" height="130" viewBox="0 0 399 130" fill="none" xmlns="http://www.w3.org/2000/svg">
<g clip-path="url(#clip0_796_82)">
<mask id="mask0_796_82" style="mask-type:luminance" maskUnits="userSpaceOnUse" x="0" y="0" width="100" height="85">
<path d="M0.817871 0H99.7055V84.5355H0.817871V0Z" fill="white"/>
</mask>
<g mask="url(#mask0_796_82)">
<path d="M53.8309 0.210882C40.4024 1.4152 27.4496 9.98974 21.1902 21.7915C15.9684 31.7008 14.8445 43.6774 18.2552 53.6283C19.2901 56.7751 21.2319 60.4352 21.7938 60.4352C21.9663 60.4352 24.7316 58.2791 27.9253 55.654C35.0054 49.7934 38.9752 46.8214 44.3305 43.1613C52.0171 37.9472 55.3805 34.1566 58.104 27.6106C60.2183 22.5685 62.8973 20.7176 67.1287 21.3614C68.7227 21.6195 75.8473 24.9799 75.8473 25.4961C75.8473 25.6265 74.9849 26.101 73.9055 26.5311C69.1122 28.5124 68.0745 31.0542 69.1985 37.9472C70.5366 46.0888 68.9842 51.8662 64.0184 56.8167C58.0178 62.8022 47.9137 65.1776 33.926 63.9233C21.3654 62.7606 15.2757 65.8214 4.05049 78.6998C2.23387 80.7699 0.812291 82.6652 0.94026 82.84C1.32974 83.4866 6.46524 84.2636 9.26945 84.0443C14.3243 83.6614 18.3776 81.2028 23.1709 75.5614C24.4673 74.0518 26.0224 72.2426 26.6261 71.5988L27.7055 70.3917L31.03 72.9335C37.1169 77.5427 42.8171 80.3426 49.2907 81.805C54.1703 82.9677 63.1449 82.84 67.724 81.6329C85.3004 76.8961 97.299 63.0631 99.1129 45.4006C100.882 28.3404 91.902 11.9738 76.49 4.30668C69.5017 0.813042 62.0293 -0.568873 53.8309 0.210882Z" fill="#EDEDED"/>
</g>
<path d="M271.661 35.2749V54.619L272.807 56.6419C274.315 59.1393 276.302 60.3881 279.799 60.9958C284.809 61.8532 287.271 60.3908 287.741 56.3394L287.958 54.1944H285.71C282.603 54.4025 280.703 53.5395 280.099 51.8191C279.796 50.87 279.626 45.4395 279.626 35.1861C279.626 24.3306 279.498 19.6354 279.109 18.8612C278.419 17.396 276.819 16.5747 273.798 16.2306L271.656 15.9281V35.2722L271.661 35.2749Z" fill="#EDEDED"/>
<path d="M216.734 20.8175C216.036 21.2892 214.898 22.4825 214.2 23.462L212.976 25.2546V52.9845L214.169 55.3238C216.297 59.5361 220.646 61.6173 226.315 61.1067C230.408 60.7238 232.029 59.1088 232.45 55.0241C232.708 52.7709 232.664 52.6016 231.896 52.9013C230.063 53.6228 226.568 54.0917 225.161 53.8337C224.312 53.6616 223.119 53.0678 222.476 52.5156L221.283 51.5388V34.509H225.79C229.99 34.509 230.422 34.423 231.476 33.4823C232.614 32.4611 233.27 30.2856 233.009 28.493C232.875 27.469 232.833 27.469 227.1 27.3414L221.283 27.2137V20.0045H219.664C218.748 20.0045 217.433 20.3874 216.731 20.8147L216.734 20.8175Z" fill="#EDEDED"/>
<path d="M162.325 27.6106C155.2 30.1496 151.531 36.482 151.92 45.6143C152.182 51.8607 154.251 55.9953 158.441 58.884C165.649 63.7957 176.568 61.8116 181.061 54.705C182.488 52.4212 183.309 50.0542 183.785 46.5217C184.906 38.7658 181.409 31.2707 175.236 28.2516C171.995 26.7032 165.822 26.3563 162.325 27.605V27.6106ZM170.529 34.7616C173.681 36.0547 175.277 39.4151 175.277 44.7125C175.277 48.3726 174.326 50.8728 172.298 52.6821C171.004 53.8031 170.442 53.9752 168.328 53.9752C165.134 53.9752 163.148 52.9401 161.81 50.5703C159.821 46.9491 159.863 40.2698 161.98 37.0842C163.794 34.3703 167.335 33.3824 170.531 34.7588L170.529 34.7616Z" fill="#EDEDED"/>
<path d="M246.084 27.5662C239.652 29.9776 236.022 35.3665 235.507 43.2029C234.728 55.1379 244.011 63.3212 255.968 61.3399C261.493 60.3964 263.869 58.071 263.869 53.7171V51.4777L261.41 52.8097C259.248 53.9752 258.386 54.1889 254.889 54.3193C250.785 54.5329 249.278 54.1916 246.902 52.5544C245.953 51.9079 244.011 49.0219 244.011 48.2449C244.011 48.1589 246.821 47.9453 250.271 47.7732C262.364 47.171 265.599 45.187 265.082 38.6825C264.654 33.8125 262.236 30.1968 258.005 28.0851C255.198 26.7059 249.108 26.4451 246.087 27.5662H246.084ZM254.805 34.3314C257.267 35.3665 258.43 38.8546 256.833 40.317C255.754 41.3076 252.213 41.9126 247.853 41.9126C244.27 41.9126 244.226 41.9126 244.226 40.8331C244.226 39.5011 245.308 36.8289 246.298 35.7078C248.026 33.8098 251.951 33.1687 254.803 34.3314H254.805Z" fill="#EDEDED"/>
<path d="M132.126 27.8686C125.995 29.8083 122.022 33.9846 120.423 40.1893C118.395 48.0729 122.022 56.1285 129.189 59.6638C131.651 60.8709 132.597 61.0873 136.01 61.2178C140.497 61.4314 142.445 60.9569 144.515 59.2337C146.284 57.7657 147.018 55.8288 147.018 52.8569V50.4038L146.025 51.3057C144.857 52.3824 142.439 53.2898 139.546 53.7171C134.149 54.5385 129.528 50.9588 128.666 45.3202C128.02 40.8803 130.869 36.4432 135.228 35.1944C138.553 34.2482 142.873 34.9808 145.633 37.0509L147.016 38.0831V35.4553C147.016 31.6203 145.544 29.3393 142.178 27.9158C140.236 27.1388 134.583 27.0972 132.118 27.8742L132.126 27.8686Z" fill="#EDEDED"/>
<path d="M196.746 27.8464C194.804 28.579 192.734 30.0858 191.524 31.6814C189.496 34.4397 189.193 36.5486 189.193 47.579C189.193 56.2812 189.279 57.874 189.883 58.7342C190.829 60.0689 193.038 60.9319 195.452 60.9319H197.397L197.439 50.4649C197.483 38.5743 197.697 37.1536 199.987 35.6024C201.28 34.7005 201.845 34.6117 204.087 34.7865C205.512 34.9142 207.025 35.1279 207.456 35.2999C208.105 35.5607 208.191 35.2999 208.191 33.0578C208.191 30.8184 208.018 30.2578 207.111 29.3144C206.55 28.7094 205.554 27.9796 204.95 27.7604C203.481 27.1999 198.387 27.2859 196.746 27.8464Z" fill="#EDEDED"/>
<path d="M170.701 71.0771C170.529 71.2048 170.395 71.6793 170.395 72.0678C170.395 72.9336 169.06 74.2239 168.192 74.2239C167.889 74.2239 166.164 73.5302 164.439 72.6727C161.676 71.2936 160.984 71.1187 158.911 71.2936C155.59 71.5988 153.948 73.1888 153.642 76.5077C153.428 79.1799 154.16 80.2538 156.104 80.2538C157.053 80.2538 157.353 79.993 157.657 78.8747C158.349 76.5077 159.815 76.38 163.571 78.2309C167.026 79.9541 169.227 80.2094 171.169 79.2215C173.889 77.798 175.141 74.7844 174.062 72.1982C173.586 71.0355 173.197 70.7747 172.201 70.7747C171.511 70.7747 170.821 70.9023 170.693 71.0771H170.701Z" fill="#EDEDED"/>
<path d="M345.929 91.7587C345.929 102.786 346.101 110.842 346.36 111.744C347.052 114.161 348.563 116.098 350.677 117.302C352.319 118.204 353.181 118.381 356.161 118.381C359.441 118.381 359.83 118.295 360.868 117.216C361.73 116.4 362.075 115.537 362.248 113.903L362.462 111.705H360.217C356.851 111.705 355.167 110.845 354.605 108.822C354.299 107.831 354.13 101.371 354.13 91.8946C354.13 78.4584 354.044 76.4771 353.44 75.5725C352.488 74.2405 350.285 73.3748 347.87 73.3748H345.923V91.767L345.929 91.7587Z" fill="#EDEDED"/>
<path d="M129.336 84.3024C125.325 85.3791 121.783 88.179 120.442 91.3258C119.711 93.135 119.711 97.6582 120.487 99.1261C121.956 101.926 124.459 103.302 130.374 104.423C132.789 104.856 135.253 105.586 135.857 106.019C137.409 107.182 137.496 109.077 136.071 110.409C134.992 111.402 134.605 111.488 130.761 111.488C126.529 111.444 126.181 111.358 121.09 108.772C120.314 108.383 120.743 113.639 121.561 114.977C123.55 118.248 130.888 119.885 136.717 118.423C142.197 116.999 144.962 114.075 145.263 109.291C145.524 105.545 145.09 103.774 143.583 102.012C141.813 100.028 139.437 98.9513 134.344 97.919C132.012 97.4445 129.637 96.7563 129.077 96.4094C126.963 94.9859 128.602 91.8003 131.751 91.1981C135.64 90.4628 139.309 91.2425 144.62 93.9564C145.049 94.1701 145.007 91.0705 144.492 89.214C143.282 84.9101 135.943 82.4932 129.336 84.3052V84.3024Z" fill="#EDEDED"/>
<path d="M159.142 84.258C154.521 85.4651 152.19 87.9181 151.756 92.1C151.628 93.3931 151.628 94.4698 151.798 94.4698C151.97 94.4698 152.746 93.998 153.525 93.3931C155.815 91.6698 158.405 90.8956 162.422 90.8956C165.182 90.8512 166.434 91.0233 167.513 91.5866C169.026 92.4052 170.192 94.5169 170.192 96.4094C170.192 97.4445 170.109 97.4889 167.085 97.4889C162.984 97.4889 158.881 98.1798 156.291 99.2981C149.772 102.098 148.306 110.109 153.403 115.237C155.948 117.776 159.618 119.031 164.539 119.031C170.626 119.031 174.599 117.088 176.933 112.912L178.185 110.628V102.445C178.185 95.6796 178.054 93.8704 177.403 92.0195C176.324 89.0059 173.781 86.2032 170.974 84.9989C168.17 83.789 162.425 83.445 159.145 84.2636L159.142 84.258ZM170.392 106.208C170.392 108.88 170.306 109.138 168.923 110.52C167.627 111.81 167.196 111.985 165.251 111.985C162.62 111.985 160.288 111.125 159.64 109.921C158.822 108.367 159.081 106.213 160.202 105.137C161.54 103.888 163.268 103.458 167.285 103.413L170.392 103.369V106.208Z" fill="#EDEDED"/>
<path d="M194.573 84.5189C187.883 86.6278 184.082 92.0584 183.479 100.289C182.661 111.572 190 119.675 200.318 118.9C204.335 118.598 206.149 118.043 208.694 116.272C212.664 113.556 215.171 108.691 215.605 102.786C216.075 96.6703 214.439 91.8447 210.55 87.9237C208.522 85.9424 207.615 85.3375 205.195 84.6105C201.612 83.531 197.811 83.4894 194.573 84.5245V84.5189ZM201.442 91.4562C203.3 91.9696 204.763 93.3071 205.929 95.5465C206.708 96.97 206.833 98.0439 206.878 101.576C206.878 106.313 206.102 108.555 203.854 110.32C201.35 112.304 196.991 111.871 194.746 109.46C192.718 107.307 192.197 105.539 192.197 100.93C192.197 97.5694 192.37 96.5344 193.107 95.1164C195.007 91.6255 197.767 90.374 201.436 91.4562H201.442Z" fill="#EDEDED"/>
<mask id="mask1_796_82" style="mask-type:luminance" maskUnits="userSpaceOnUse" x="236" y="83" width="34" height="46">
<path d="M236.444 83.1147H269.205V128.762H236.444V83.1147Z" fill="white"/>
</mask>
<g mask="url(#mask1_796_82)">
<path d="M248.287 84.1609C243.58 85.368 240.167 88.4287 238.183 93.3376C237.232 95.749 237.187 96.3511 237.059 110.398C236.931 123.282 237.018 125.133 237.621 126.035C238.745 127.758 240.857 128.793 243.146 128.793H245.174V114.186L247.035 115.995C251.047 120.002 258.13 119.788 263.354 115.479C267.586 111.988 270.045 102.253 268.323 95.835C267.027 90.9678 263.744 86.8303 259.643 84.8934C257.009 83.6419 251.742 83.2979 248.29 84.1581L248.287 84.1609ZM254.588 91.4562C256.92 92.0999 258.734 94.2561 259.51 97.2696C261.841 106.147 257.782 113.04 251.222 111.275C247.205 110.24 244.793 105.672 245.18 100.028C245.483 95.9349 246.905 93.2626 249.408 91.9723C251.528 90.9372 252.346 90.8512 254.591 91.4589L254.588 91.4562Z" fill="#EDEDED"/>
</g>
<path d="M282.224 84.258C277.603 85.4651 275.272 87.9181 274.844 92.1C274.713 93.3931 274.713 94.4698 274.886 94.4698C275.058 94.4698 275.834 93.998 276.613 93.3931C278.903 91.6698 281.493 90.8956 285.507 90.8956C288.272 90.8512 289.524 91.0233 290.604 91.5866C292.114 92.4052 293.28 94.5169 293.28 96.4094C293.28 97.4445 293.194 97.4889 290.172 97.4889C286.069 97.4889 281.968 98.1798 279.378 99.2981C272.857 102.098 271.391 110.109 276.485 115.237C279.031 117.776 282.703 119.031 287.621 119.031C293.708 119.031 297.684 117.088 300.015 112.912L301.267 110.628V102.445C301.267 95.6796 301.136 93.8704 300.491 92.0195C299.411 89.0059 296.863 86.2032 294.059 84.9989C291.252 83.789 285.507 83.445 282.227 84.2636L282.224 84.258ZM293.475 106.208C293.475 108.88 293.388 109.138 292.008 110.52C290.715 111.81 290.281 111.985 288.339 111.985C285.702 111.985 283.37 111.125 282.728 109.921C281.907 108.367 282.166 106.213 283.29 105.137C284.625 103.888 286.358 103.458 290.37 103.413L293.477 103.369V106.208H293.475Z" fill="#EDEDED"/>
<mask id="mask2_796_82" style="mask-type:luminance" maskUnits="userSpaceOnUse" x="364" y="83" width="34" height="37">
<path d="M364.637 83.1147H397.651V119.344H364.637V83.1147Z" fill="white"/>
</mask>
<g mask="url(#mask2_796_82)">
<path d="M376.338 84.5189C369.645 86.6278 365.847 92.0584 365.244 100.289C364.423 111.572 371.762 119.675 382.08 118.9C386.097 118.598 387.911 118.043 390.457 116.272C394.426 113.556 396.936 108.691 397.367 102.786C397.84 96.6703 396.201 91.8447 392.312 87.9237C390.287 85.9424 389.377 85.3375 386.96 84.6105C383.376 83.531 379.573 83.4894 376.338 84.5245V84.5189ZM383.204 91.4562C385.065 91.9696 386.526 93.3071 387.691 95.5465C388.473 96.97 388.598 98.0439 388.64 101.576C388.64 106.313 387.864 108.555 385.619 110.32C383.115 112.304 378.756 111.871 376.508 109.46C374.48 107.307 373.962 105.539 373.962 100.93C373.962 97.5694 374.135 96.5344 374.872 95.1164C376.769 91.6255 379.532 90.374 383.201 91.4562H383.204Z" fill="#EDEDED"/>
</g>
<path d="M308.536 95.7878C308.536 104.792 308.664 107.85 309.182 109.532C311.046 115.778 317.146 119.569 324.546 119.011C330.992 118.537 334.712 116.125 336.706 111.125C337.613 108.758 337.7 107.85 337.833 98.4573C337.961 90.7902 337.875 88.0763 337.444 87.3021C336.492 85.5344 334.717 84.5438 332.163 84.3301L329.827 84.1581L329.651 95.2745C329.476 107.295 329.262 108.372 327.011 110.437C324.46 112.809 319.608 111.561 317.878 108.153C317.055 106.602 316.927 105.439 316.751 96.9117C316.537 88.1207 316.451 87.2632 315.672 86.403C314.501 85.0683 312.384 84.2469 310.264 84.2469H308.531V95.7934L308.536 95.7878Z" fill="#EDEDED"/>
<mask id="mask3_796_82" style="mask-type:luminance" maskUnits="userSpaceOnUse" x="0" y="0" width="100" height="85">
<path d="M0.817871 0H99.7055V84.5355H0.817871V0Z" fill="white"/>
</mask>
<g mask="url(#mask3_796_82)">
<path d="M53.8309 0.210882C40.4024 1.4152 27.4496 9.98974 21.1902 21.7915C15.9684 31.7008 14.8445 43.6774 18.2552 53.6283C19.2901 56.7751 21.2319 60.4352 21.7938 60.4352C21.9663 60.4352 24.7316 58.2791 27.9253 55.654C35.0054 49.7934 38.9752 46.8214 44.3305 43.1613C52.0171 37.9472 55.3805 34.1566 58.104 27.6106C60.2183 22.5685 62.8973 20.7176 67.1287 21.3614C68.7227 21.6195 75.8473 24.9799 75.8473 25.4961C75.8473 25.6265 74.9849 26.101 73.9055 26.5311C69.1122 28.5124 68.0745 31.0542 69.1985 37.9472C70.5366 46.0888 68.9842 51.8662 64.0184 56.8167C58.0178 62.8022 47.9137 65.1776 33.926 63.9233C21.3654 62.7606 15.2757 65.8214 4.05049 78.6998C2.23387 80.7699 0.812291 82.6652 0.94026 82.84C1.32974 83.4866 6.46524 84.2636 9.26945 84.0443C14.3243 83.6614 18.3776 81.2028 23.1709 75.5614C24.4673 74.0518 26.0224 72.2426 26.6261 71.5988L27.7055 70.3917L31.03 72.9335C37.1169 77.5427 42.8171 80.3426 49.2907 81.805C54.1703 82.9677 63.1449 82.84 67.724 81.6329C85.3004 76.8961 97.299 63.0631 99.1129 45.4006C100.882 28.3404 91.902 11.9738 76.49 4.30668C69.5017 0.813042 62.0293 -0.568873 53.8309 0.210882Z" fill="#EDEDED"/>
</g>
<path d="M271.661 35.2749V54.619L272.807 56.6419C274.315 59.1393 276.302 60.3881 279.799 60.9958C284.809 61.8532 287.271 60.3908 287.741 56.3394L287.958 54.1944H285.71C282.603 54.4025 280.703 53.5395 280.099 51.8191C279.796 50.87 279.626 45.4395 279.626 35.1861C279.626 24.3306 279.498 19.6354 279.109 18.8612C278.419 17.396 276.819 16.5747 273.798 16.2306L271.656 15.9281V35.2722L271.661 35.2749Z" fill="#EDEDED"/>
<path d="M216.734 20.8175C216.036 21.2892 214.898 22.4825 214.2 23.462L212.976 25.2546V52.9845L214.169 55.3238C216.297 59.5361 220.646 61.6173 226.315 61.1067C230.408 60.7238 232.029 59.1088 232.45 55.0241C232.708 52.7709 232.664 52.6016 231.896 52.9013C230.063 53.6228 226.568 54.0917 225.161 53.8337C224.312 53.6616 223.119 53.0678 222.476 52.5156L221.283 51.5388V34.509H225.79C229.99 34.509 230.422 34.423 231.476 33.4823C232.614 32.4611 233.27 30.2856 233.009 28.493C232.875 27.469 232.833 27.469 227.1 27.3414L221.283 27.2137V20.0045H219.664C218.748 20.0045 217.433 20.3874 216.731 20.8147L216.734 20.8175Z" fill="#EDEDED"/>
<path d="M162.325 27.6106C155.2 30.1496 151.531 36.482 151.92 45.6143C152.182 51.8607 154.251 55.9953 158.441 58.884C165.649 63.7957 176.568 61.8116 181.061 54.705C182.488 52.4212 183.309 50.0542 183.785 46.5217C184.906 38.7658 181.409 31.2707 175.236 28.2516C171.995 26.7032 165.822 26.3563 162.325 27.605V27.6106ZM170.529 34.7616C173.681 36.0547 175.277 39.4151 175.277 44.7125C175.277 48.3726 174.326 50.8728 172.298 52.6821C171.004 53.8031 170.442 53.9752 168.328 53.9752C165.134 53.9752 163.148 52.9401 161.81 50.5703C159.821 46.9491 159.863 40.2698 161.98 37.0842C163.794 34.3703 167.335 33.3824 170.531 34.7588L170.529 34.7616Z" fill="#EDEDED"/>
<path d="M246.084 27.5662C239.652 29.9776 236.022 35.3665 235.507 43.2029C234.728 55.1379 244.011 63.3212 255.968 61.3399C261.493 60.3964 263.869 58.071 263.869 53.7171V51.4777L261.41 52.8097C259.248 53.9752 258.386 54.1889 254.889 54.3193C250.785 54.5329 249.278 54.1916 246.902 52.5544C245.953 51.9079 244.011 49.0219 244.011 48.2449C244.011 48.1589 246.821 47.9453 250.271 47.7732C262.364 47.171 265.599 45.187 265.082 38.6825C264.654 33.8125 262.236 30.1968 258.005 28.0851C255.198 26.7059 249.108 26.4451 246.087 27.5662H246.084ZM254.805 34.3314C257.267 35.3665 258.43 38.8546 256.833 40.317C255.754 41.3076 252.213 41.9126 247.853 41.9126C244.27 41.9126 244.226 41.9126 244.226 40.8331C244.226 39.5011 245.308 36.8289 246.298 35.7078C248.026 33.8098 251.951 33.1687 254.803 34.3314H254.805Z" fill="#EDEDED"/>
<path d="M132.126 27.8686C125.995 29.8083 122.022 33.9846 120.423 40.1893C118.395 48.0729 122.022 56.1285 129.189 59.6638C131.651 60.8709 132.597 61.0873 136.01 61.2178C140.497 61.4314 142.445 60.9569 144.515 59.2337C146.284 57.7657 147.018 55.8288 147.018 52.8569V50.4038L146.025 51.3057C144.857 52.3824 142.439 53.2898 139.546 53.7171C134.149 54.5385 129.528 50.9588 128.666 45.3202C128.02 40.8803 130.869 36.4432 135.228 35.1944C138.553 34.2482 142.873 34.9808 145.633 37.0509L147.016 38.0831V35.4553C147.016 31.6203 145.544 29.3393 142.178 27.9158C140.236 27.1388 134.583 27.0972 132.118 27.8742L132.126 27.8686Z" fill="#EDEDED"/>
<path d="M196.746 27.8464C194.804 28.579 192.734 30.0858 191.524 31.6814C189.496 34.4397 189.193 36.5486 189.193 47.579C189.193 56.2812 189.279 57.874 189.883 58.7342C190.829 60.0689 193.038 60.9319 195.452 60.9319H197.397L197.439 50.4649C197.483 38.5743 197.697 37.1536 199.987 35.6024C201.28 34.7005 201.845 34.6117 204.087 34.7865C205.512 34.9142 207.025 35.1279 207.456 35.2999C208.105 35.5607 208.191 35.2999 208.191 33.0578C208.191 30.8184 208.018 30.2578 207.111 29.3144C206.55 28.7094 205.554 27.9796 204.95 27.7604C203.481 27.1999 198.387 27.2859 196.746 27.8464Z" fill="#EDEDED"/>
<path d="M170.701 71.0771C170.529 71.2048 170.395 71.6793 170.395 72.0678C170.395 72.9336 169.06 74.2239 168.192 74.2239C167.889 74.2239 166.164 73.5302 164.439 72.6727C161.676 71.2936 160.984 71.1187 158.911 71.2936C155.59 71.5988 153.948 73.1888 153.642 76.5077C153.428 79.1799 154.16 80.2538 156.104 80.2538C157.053 80.2538 157.353 79.993 157.657 78.8747C158.349 76.5077 159.815 76.38 163.571 78.2309C167.026 79.9541 169.227 80.2094 171.169 79.2215C173.889 77.798 175.141 74.7844 174.062 72.1982C173.586 71.0355 173.197 70.7747 172.201 70.7747C171.511 70.7747 170.821 70.9023 170.693 71.0771H170.701Z" fill="#EDEDED"/>
<path d="M345.929 91.7587C345.929 102.786 346.101 110.842 346.36 111.744C347.052 114.161 348.563 116.098 350.677 117.302C352.319 118.204 353.181 118.381 356.161 118.381C359.441 118.381 359.83 118.295 360.868 117.216C361.73 116.4 362.075 115.537 362.248 113.903L362.462 111.705H360.217C356.851 111.705 355.167 110.845 354.605 108.822C354.299 107.831 354.13 101.371 354.13 91.8946C354.13 78.4584 354.044 76.4771 353.44 75.5725C352.488 74.2405 350.285 73.3748 347.87 73.3748H345.923V91.767L345.929 91.7587Z" fill="#EDEDED"/>
<path d="M129.336 84.3024C125.325 85.3791 121.783 88.179 120.442 91.3258C119.711 93.135 119.711 97.6582 120.487 99.1261C121.956 101.926 124.459 103.302 130.374 104.423C132.789 104.856 135.253 105.586 135.857 106.019C137.409 107.182 137.496 109.077 136.071 110.409C134.992 111.402 134.605 111.488 130.761 111.488C126.529 111.444 126.181 111.358 121.09 108.772C120.314 108.383 120.743 113.639 121.561 114.977C123.55 118.248 130.888 119.885 136.717 118.423C142.197 116.999 144.962 114.075 145.263 109.291C145.524 105.545 145.09 103.774 143.583 102.012C141.813 100.028 139.437 98.9513 134.344 97.919C132.012 97.4445 129.637 96.7563 129.077 96.4094C126.963 94.9859 128.602 91.8003 131.751 91.1981C135.64 90.4628 139.309 91.2425 144.62 93.9564C145.049 94.1701 145.007 91.0705 144.492 89.214C143.282 84.9101 135.943 82.4932 129.336 84.3052V84.3024Z" fill="#EDEDED"/>
<path d="M159.142 84.258C154.521 85.4651 152.19 87.9181 151.756 92.1C151.628 93.3931 151.628 94.4698 151.798 94.4698C151.97 94.4698 152.746 93.998 153.525 93.3931C155.815 91.6698 158.405 90.8956 162.422 90.8956C165.182 90.8512 166.434 91.0233 167.513 91.5866C169.026 92.4052 170.192 94.5169 170.192 96.4094C170.192 97.4445 170.109 97.4889 167.085 97.4889C162.984 97.4889 158.881 98.1798 156.291 99.2981C149.772 102.098 148.306 110.109 153.403 115.237C155.948 117.776 159.618 119.031 164.539 119.031C170.626 119.031 174.599 117.088 176.933 112.912L178.185 110.628V102.445C178.185 95.6796 178.054 93.8704 177.403 92.0195C176.324 89.0059 173.781 86.2032 170.974 84.9989C168.17 83.789 162.425 83.445 159.145 84.2636L159.142 84.258ZM170.392 106.208C170.392 108.88 170.306 109.138 168.923 110.52C167.627 111.81 167.196 111.985 165.251 111.985C162.62 111.985 160.288 111.125 159.64 109.921C158.822 108.367 159.081 106.213 160.202 105.137C161.54 103.888 163.268 103.458 167.285 103.413L170.392 103.369V106.208Z" fill="#EDEDED"/>
<path d="M194.573 84.5189C187.883 86.6278 184.082 92.0584 183.479 100.289C182.661 111.572 190 119.675 200.318 118.9C204.335 118.598 206.149 118.043 208.694 116.272C212.664 113.556 215.171 108.691 215.605 102.786C216.075 96.6703 214.439 91.8447 210.55 87.9237C208.522 85.9424 207.615 85.3375 205.195 84.6105C201.612 83.531 197.811 83.4894 194.573 84.5245V84.5189ZM201.442 91.4562C203.3 91.9696 204.763 93.3071 205.929 95.5465C206.708 96.97 206.833 98.0439 206.878 101.576C206.878 106.313 206.102 108.555 203.854 110.32C201.35 112.304 196.991 111.871 194.746 109.46C192.718 107.307 192.197 105.539 192.197 100.93C192.197 97.5694 192.37 96.5344 193.107 95.1164C195.007 91.6255 197.767 90.374 201.436 91.4562H201.442Z" fill="#EDEDED"/>
<mask id="mask4_796_82" style="mask-type:luminance" maskUnits="userSpaceOnUse" x="236" y="83" width="34" height="46">
<path d="M236.444 83.1147H269.205V128.762H236.444V83.1147Z" fill="white"/>
</mask>
<g mask="url(#mask4_796_82)">
<path d="M248.287 84.1609C243.58 85.368 240.167 88.4287 238.183 93.3376C237.232 95.749 237.187 96.3511 237.059 110.398C236.931 123.282 237.018 125.133 237.621 126.035C238.745 127.758 240.857 128.793 243.146 128.793H245.174V114.186L247.035 115.995C251.047 120.002 258.13 119.788 263.354 115.479C267.586 111.988 270.045 102.253 268.323 95.835C267.027 90.9678 263.744 86.8303 259.643 84.8934C257.009 83.6419 251.742 83.2979 248.29 84.1581L248.287 84.1609ZM254.588 91.4562C256.92 92.0999 258.734 94.2561 259.51 97.2696C261.841 106.147 257.782 113.04 251.222 111.275C247.205 110.24 244.793 105.672 245.18 100.028C245.483 95.9349 246.905 93.2626 249.408 91.9723C251.528 90.9372 252.346 90.8512 254.591 91.4589L254.588 91.4562Z" fill="#EDEDED"/>
</g>
<path d="M282.224 84.258C277.603 85.4651 275.272 87.9181 274.844 92.1C274.713 93.3931 274.713 94.4698 274.886 94.4698C275.058 94.4698 275.834 93.998 276.613 93.3931C278.903 91.6698 281.493 90.8956 285.507 90.8956C288.272 90.8512 289.524 91.0233 290.604 91.5866C292.114 92.4052 293.28 94.5169 293.28 96.4094C293.28 97.4445 293.194 97.4889 290.172 97.4889C286.069 97.4889 281.968 98.1798 279.378 99.2981C272.857 102.098 271.391 110.109 276.485 115.237C279.031 117.776 282.703 119.031 287.621 119.031C293.708 119.031 297.684 117.088 300.015 112.912L301.267 110.628V102.445C301.267 95.6796 301.136 93.8704 300.491 92.0195C299.411 89.0059 296.863 86.2032 294.059 84.9989C291.252 83.789 285.507 83.445 282.227 84.2636L282.224 84.258ZM293.475 106.208C293.475 108.88 293.388 109.138 292.008 110.52C290.715 111.81 290.281 111.985 288.339 111.985C285.702 111.985 283.37 111.125 282.728 109.921C281.907 108.367 282.166 106.213 283.29 105.137C284.625 103.888 286.358 103.458 290.37 103.413L293.477 103.369V106.208H293.475Z" fill="#EDEDED"/>
<mask id="mask5_796_82" style="mask-type:luminance" maskUnits="userSpaceOnUse" x="364" y="83" width="34" height="37">
<path d="M364.637 83.1147H397.651V119.344H364.637V83.1147Z" fill="white"/>
</mask>
<g mask="url(#mask5_796_82)">
<path d="M376.338 84.5189C369.645 86.6278 365.847 92.0584 365.244 100.289C364.423 111.572 371.762 119.675 382.08 118.9C386.097 118.598 387.911 118.043 390.457 116.272C394.426 113.556 396.936 108.691 397.367 102.786C397.84 96.6703 396.201 91.8447 392.312 87.9237C390.287 85.9424 389.377 85.3375 386.96 84.6105C383.376 83.531 379.573 83.4894 376.338 84.5245V84.5189ZM383.204 91.4562C385.065 91.9696 386.526 93.3071 387.691 95.5465C388.473 96.97 388.598 98.0439 388.64 101.576C388.64 106.313 387.864 108.555 385.619 110.32C383.115 112.304 378.756 111.871 376.508 109.46C374.48 107.307 373.962 105.539 373.962 100.93C373.962 97.5694 374.135 96.5344 374.872 95.1164C376.769 91.6255 379.532 90.374 383.201 91.4562H383.204Z" fill="#EDEDED"/>
</g>
<path d="M308.536 95.7878C308.536 104.792 308.664 107.85 309.182 109.532C311.046 115.778 317.146 119.569 324.546 119.011C330.992 118.537 334.712 116.125 336.706 111.125C337.613 108.758 337.7 107.85 337.833 98.4573C337.961 90.7902 337.875 88.0763 337.444 87.3021C336.492 85.5344 334.717 84.5438 332.163 84.3301L329.827 84.1581L329.651 95.2745C329.476 107.295 329.262 108.372 327.011 110.437C324.46 112.809 319.608 111.561 317.878 108.153C317.055 106.602 316.927 105.439 316.751 96.9117C316.537 88.1207 316.451 87.2632 315.672 86.403C314.501 85.0683 312.384 84.2469 310.264 84.2469H308.531V95.7934L308.536 95.7878Z" fill="#EDEDED"/>
</g>
<defs>
<clipPath id="clip0_796_82">
<rect width="399" height="130" fill="white"/>
</clipPath>
</defs>
</svg>
