<svg width="100" height="85" viewBox="0 0 100 85" fill="none" xmlns="http://www.w3.org/2000/svg">
<mask id="mask0_796_115" style="mask-type:luminance" maskUnits="userSpaceOnUse" x="0" y="0" width="100" height="85">
<path d="M0.817871 0H99.7055V84.5355H0.817871V0Z" fill="white"/>
</mask>
<g mask="url(#mask0_796_115)">
<path d="M53.8309 0.210882C40.4024 1.4152 27.4496 9.98974 21.1902 21.7915C15.9684 31.7008 14.8445 43.6774 18.2552 53.6283C19.2901 56.7751 21.2319 60.4352 21.7938 60.4352C21.9663 60.4352 24.7316 58.2791 27.9253 55.654C35.0054 49.7934 38.9752 46.8214 44.3305 43.1613C52.0171 37.9472 55.3805 34.1566 58.104 27.6106C60.2183 22.5685 62.8973 20.7176 67.1287 21.3614C68.7227 21.6195 75.8473 24.9799 75.8473 25.4961C75.8473 25.6265 74.9849 26.101 73.9055 26.5311C69.1122 28.5124 68.0745 31.0542 69.1985 37.9472C70.5366 46.0888 68.9842 51.8662 64.0184 56.8167C58.0178 62.8022 47.9137 65.1776 33.926 63.9233C21.3654 62.7606 15.2757 65.8214 4.05049 78.6998C2.23387 80.7699 0.812291 82.6652 0.94026 82.84C1.32974 83.4866 6.46524 84.2636 9.26945 84.0443C14.3243 83.6614 18.3776 81.2028 23.1709 75.5614C24.4673 74.0518 26.0224 72.2426 26.6261 71.5988L27.7055 70.3917L31.03 72.9335C37.1169 77.5427 42.8171 80.3426 49.2907 81.805C54.1703 82.9677 63.1449 82.84 67.724 81.6329C85.3004 76.8961 97.299 63.0631 99.1129 45.4006C100.882 28.3404 91.902 11.9738 76.49 4.30668C69.5017 0.813042 62.0293 -0.568873 53.8309 0.210882Z" fill="#EDEDED"/>
</g>
</svg>
